<mxfile host="app.diagrams.net" agent="Mozilla/5.0 (Windows NT 10.0; Win64; x64) AppleWebKit/537.36 (KHTML, like Gecko) Chrome/131.0.0.0 Safari/537.36" version="25.0.3">
  <diagram name="Page-1" id="B8S5PKxlE_HWRli8H1-x">
    <mxGraphModel dx="1500" dy="951" grid="1" gridSize="10" guides="1" tooltips="1" connect="1" arrows="1" fold="1" page="1" pageScale="1" pageWidth="850" pageHeight="1100" math="0" shadow="0">
      <root>
        <mxCell id="0" />
        <mxCell id="1" parent="0" />
        <mxCell id="mNAGnWDZsvZTTTlplhB_-1" value="Users" style="shape=table;startSize=25;container=1;collapsible=0;childLayout=tableLayout;fixedRows=1;rowLines=1;fontStyle=1;align=center;resizeLast=1;" vertex="1" parent="1">
          <mxGeometry x="114" y="20" width="112" height="113" as="geometry" />
        </mxCell>
        <mxCell id="mNAGnWDZsvZTTTlplhB_-2" style="shape=tableRow;horizontal=0;startSize=0;swimlaneHead=0;swimlaneBody=0;fillColor=none;collapsible=0;dropTarget=0;points=[[0,0.5],[1,0.5]];portConstraint=eastwest;top=0;left=0;right=0;bottom=0;" vertex="1" parent="mNAGnWDZsvZTTTlplhB_-1">
          <mxGeometry y="25" width="112" height="22" as="geometry" />
        </mxCell>
        <mxCell id="mNAGnWDZsvZTTTlplhB_-3" value="int" style="shape=partialRectangle;connectable=0;fillColor=none;top=0;left=0;bottom=0;right=0;align=left;spacingLeft=2;overflow=hidden;fontSize=11;" vertex="1" parent="mNAGnWDZsvZTTTlplhB_-2">
          <mxGeometry width="36" height="22" as="geometry">
            <mxRectangle width="36" height="22" as="alternateBounds" />
          </mxGeometry>
        </mxCell>
        <mxCell id="mNAGnWDZsvZTTTlplhB_-4" value="user_id" style="shape=partialRectangle;connectable=0;fillColor=none;top=0;left=0;bottom=0;right=0;align=left;spacingLeft=2;overflow=hidden;fontSize=11;" vertex="1" parent="mNAGnWDZsvZTTTlplhB_-2">
          <mxGeometry x="36" width="76" height="22" as="geometry">
            <mxRectangle width="76" height="22" as="alternateBounds" />
          </mxGeometry>
        </mxCell>
        <mxCell id="mNAGnWDZsvZTTTlplhB_-5" style="shape=tableRow;horizontal=0;startSize=0;swimlaneHead=0;swimlaneBody=0;fillColor=none;collapsible=0;dropTarget=0;points=[[0,0.5],[1,0.5]];portConstraint=eastwest;top=0;left=0;right=0;bottom=0;" vertex="1" parent="mNAGnWDZsvZTTTlplhB_-1">
          <mxGeometry y="47" width="112" height="22" as="geometry" />
        </mxCell>
        <mxCell id="mNAGnWDZsvZTTTlplhB_-6" value="string" style="shape=partialRectangle;connectable=0;fillColor=none;top=0;left=0;bottom=0;right=0;align=left;spacingLeft=2;overflow=hidden;fontSize=11;" vertex="1" parent="mNAGnWDZsvZTTTlplhB_-5">
          <mxGeometry width="36" height="22" as="geometry">
            <mxRectangle width="36" height="22" as="alternateBounds" />
          </mxGeometry>
        </mxCell>
        <mxCell id="mNAGnWDZsvZTTTlplhB_-7" value="username" style="shape=partialRectangle;connectable=0;fillColor=none;top=0;left=0;bottom=0;right=0;align=left;spacingLeft=2;overflow=hidden;fontSize=11;" vertex="1" parent="mNAGnWDZsvZTTTlplhB_-5">
          <mxGeometry x="36" width="76" height="22" as="geometry">
            <mxRectangle width="76" height="22" as="alternateBounds" />
          </mxGeometry>
        </mxCell>
        <mxCell id="mNAGnWDZsvZTTTlplhB_-8" style="shape=tableRow;horizontal=0;startSize=0;swimlaneHead=0;swimlaneBody=0;fillColor=none;collapsible=0;dropTarget=0;points=[[0,0.5],[1,0.5]];portConstraint=eastwest;top=0;left=0;right=0;bottom=0;" vertex="1" parent="mNAGnWDZsvZTTTlplhB_-1">
          <mxGeometry y="69" width="112" height="22" as="geometry" />
        </mxCell>
        <mxCell id="mNAGnWDZsvZTTTlplhB_-9" value="string" style="shape=partialRectangle;connectable=0;fillColor=none;top=0;left=0;bottom=0;right=0;align=left;spacingLeft=2;overflow=hidden;fontSize=11;" vertex="1" parent="mNAGnWDZsvZTTTlplhB_-8">
          <mxGeometry width="36" height="22" as="geometry">
            <mxRectangle width="36" height="22" as="alternateBounds" />
          </mxGeometry>
        </mxCell>
        <mxCell id="mNAGnWDZsvZTTTlplhB_-10" value="email" style="shape=partialRectangle;connectable=0;fillColor=none;top=0;left=0;bottom=0;right=0;align=left;spacingLeft=2;overflow=hidden;fontSize=11;" vertex="1" parent="mNAGnWDZsvZTTTlplhB_-8">
          <mxGeometry x="36" width="76" height="22" as="geometry">
            <mxRectangle width="76" height="22" as="alternateBounds" />
          </mxGeometry>
        </mxCell>
        <mxCell id="mNAGnWDZsvZTTTlplhB_-11" style="shape=tableRow;horizontal=0;startSize=0;swimlaneHead=0;swimlaneBody=0;fillColor=none;collapsible=0;dropTarget=0;points=[[0,0.5],[1,0.5]];portConstraint=eastwest;top=0;left=0;right=0;bottom=0;" vertex="1" parent="mNAGnWDZsvZTTTlplhB_-1">
          <mxGeometry y="91" width="112" height="22" as="geometry" />
        </mxCell>
        <mxCell id="mNAGnWDZsvZTTTlplhB_-12" value="string" style="shape=partialRectangle;connectable=0;fillColor=none;top=0;left=0;bottom=0;right=0;align=left;spacingLeft=2;overflow=hidden;fontSize=11;" vertex="1" parent="mNAGnWDZsvZTTTlplhB_-11">
          <mxGeometry width="36" height="22" as="geometry">
            <mxRectangle width="36" height="22" as="alternateBounds" />
          </mxGeometry>
        </mxCell>
        <mxCell id="mNAGnWDZsvZTTTlplhB_-13" value="role" style="shape=partialRectangle;connectable=0;fillColor=none;top=0;left=0;bottom=0;right=0;align=left;spacingLeft=2;overflow=hidden;fontSize=11;" vertex="1" parent="mNAGnWDZsvZTTTlplhB_-11">
          <mxGeometry x="36" width="76" height="22" as="geometry">
            <mxRectangle width="76" height="22" as="alternateBounds" />
          </mxGeometry>
        </mxCell>
        <mxCell id="mNAGnWDZsvZTTTlplhB_-14" value="Cart" style="shape=table;startSize=75;container=1;collapsible=0;childLayout=tableLayout;fixedRows=1;rowLines=1;fontStyle=1;align=center;resizeLast=1;" vertex="1" parent="1">
          <mxGeometry x="220" y="251" width="100" height="75" as="geometry" />
        </mxCell>
        <mxCell id="mNAGnWDZsvZTTTlplhB_-15" value="Orders" style="shape=table;startSize=75;container=1;collapsible=0;childLayout=tableLayout;fixedRows=1;rowLines=1;fontStyle=1;align=center;resizeLast=1;" vertex="1" parent="1">
          <mxGeometry x="20" y="251" width="100" height="75" as="geometry" />
        </mxCell>
        <mxCell id="mNAGnWDZsvZTTTlplhB_-16" value="Games" style="shape=table;startSize=25;container=1;collapsible=0;childLayout=tableLayout;fixedRows=1;rowLines=1;fontStyle=1;align=center;resizeLast=1;" vertex="1" parent="1">
          <mxGeometry x="657" y="232" width="137" height="113" as="geometry" />
        </mxCell>
        <mxCell id="mNAGnWDZsvZTTTlplhB_-17" style="shape=tableRow;horizontal=0;startSize=0;swimlaneHead=0;swimlaneBody=0;fillColor=none;collapsible=0;dropTarget=0;points=[[0,0.5],[1,0.5]];portConstraint=eastwest;top=0;left=0;right=0;bottom=0;" vertex="1" parent="mNAGnWDZsvZTTTlplhB_-16">
          <mxGeometry y="25" width="137" height="22" as="geometry" />
        </mxCell>
        <mxCell id="mNAGnWDZsvZTTTlplhB_-18" value="int" style="shape=partialRectangle;connectable=0;fillColor=none;top=0;left=0;bottom=0;right=0;align=left;spacingLeft=2;overflow=hidden;fontSize=11;" vertex="1" parent="mNAGnWDZsvZTTTlplhB_-17">
          <mxGeometry width="42" height="22" as="geometry">
            <mxRectangle width="42" height="22" as="alternateBounds" />
          </mxGeometry>
        </mxCell>
        <mxCell id="mNAGnWDZsvZTTTlplhB_-19" value="game_id" style="shape=partialRectangle;connectable=0;fillColor=none;top=0;left=0;bottom=0;right=0;align=left;spacingLeft=2;overflow=hidden;fontSize=11;" vertex="1" parent="mNAGnWDZsvZTTTlplhB_-17">
          <mxGeometry x="42" width="95" height="22" as="geometry">
            <mxRectangle width="95" height="22" as="alternateBounds" />
          </mxGeometry>
        </mxCell>
        <mxCell id="mNAGnWDZsvZTTTlplhB_-20" style="shape=tableRow;horizontal=0;startSize=0;swimlaneHead=0;swimlaneBody=0;fillColor=none;collapsible=0;dropTarget=0;points=[[0,0.5],[1,0.5]];portConstraint=eastwest;top=0;left=0;right=0;bottom=0;" vertex="1" parent="mNAGnWDZsvZTTTlplhB_-16">
          <mxGeometry y="47" width="137" height="22" as="geometry" />
        </mxCell>
        <mxCell id="mNAGnWDZsvZTTTlplhB_-21" value="string" style="shape=partialRectangle;connectable=0;fillColor=none;top=0;left=0;bottom=0;right=0;align=left;spacingLeft=2;overflow=hidden;fontSize=11;" vertex="1" parent="mNAGnWDZsvZTTTlplhB_-20">
          <mxGeometry width="42" height="22" as="geometry">
            <mxRectangle width="42" height="22" as="alternateBounds" />
          </mxGeometry>
        </mxCell>
        <mxCell id="mNAGnWDZsvZTTTlplhB_-22" value="title" style="shape=partialRectangle;connectable=0;fillColor=none;top=0;left=0;bottom=0;right=0;align=left;spacingLeft=2;overflow=hidden;fontSize=11;" vertex="1" parent="mNAGnWDZsvZTTTlplhB_-20">
          <mxGeometry x="42" width="95" height="22" as="geometry">
            <mxRectangle width="95" height="22" as="alternateBounds" />
          </mxGeometry>
        </mxCell>
        <mxCell id="mNAGnWDZsvZTTTlplhB_-23" style="shape=tableRow;horizontal=0;startSize=0;swimlaneHead=0;swimlaneBody=0;fillColor=none;collapsible=0;dropTarget=0;points=[[0,0.5],[1,0.5]];portConstraint=eastwest;top=0;left=0;right=0;bottom=0;" vertex="1" parent="mNAGnWDZsvZTTTlplhB_-16">
          <mxGeometry y="69" width="137" height="22" as="geometry" />
        </mxCell>
        <mxCell id="mNAGnWDZsvZTTTlplhB_-24" value="decimal" style="shape=partialRectangle;connectable=0;fillColor=none;top=0;left=0;bottom=0;right=0;align=left;spacingLeft=2;overflow=hidden;fontSize=11;" vertex="1" parent="mNAGnWDZsvZTTTlplhB_-23">
          <mxGeometry width="42" height="22" as="geometry">
            <mxRectangle width="42" height="22" as="alternateBounds" />
          </mxGeometry>
        </mxCell>
        <mxCell id="mNAGnWDZsvZTTTlplhB_-25" value="price" style="shape=partialRectangle;connectable=0;fillColor=none;top=0;left=0;bottom=0;right=0;align=left;spacingLeft=2;overflow=hidden;fontSize=11;" vertex="1" parent="mNAGnWDZsvZTTTlplhB_-23">
          <mxGeometry x="42" width="95" height="22" as="geometry">
            <mxRectangle width="95" height="22" as="alternateBounds" />
          </mxGeometry>
        </mxCell>
        <mxCell id="mNAGnWDZsvZTTTlplhB_-26" style="shape=tableRow;horizontal=0;startSize=0;swimlaneHead=0;swimlaneBody=0;fillColor=none;collapsible=0;dropTarget=0;points=[[0,0.5],[1,0.5]];portConstraint=eastwest;top=0;left=0;right=0;bottom=0;" vertex="1" parent="mNAGnWDZsvZTTTlplhB_-16">
          <mxGeometry y="91" width="137" height="22" as="geometry" />
        </mxCell>
        <mxCell id="mNAGnWDZsvZTTTlplhB_-27" value="date" style="shape=partialRectangle;connectable=0;fillColor=none;top=0;left=0;bottom=0;right=0;align=left;spacingLeft=2;overflow=hidden;fontSize=11;" vertex="1" parent="mNAGnWDZsvZTTTlplhB_-26">
          <mxGeometry width="42" height="22" as="geometry">
            <mxRectangle width="42" height="22" as="alternateBounds" />
          </mxGeometry>
        </mxCell>
        <mxCell id="mNAGnWDZsvZTTTlplhB_-28" value="release_date" style="shape=partialRectangle;connectable=0;fillColor=none;top=0;left=0;bottom=0;right=0;align=left;spacingLeft=2;overflow=hidden;fontSize=11;" vertex="1" parent="mNAGnWDZsvZTTTlplhB_-26">
          <mxGeometry x="42" width="95" height="22" as="geometry">
            <mxRectangle width="95" height="22" as="alternateBounds" />
          </mxGeometry>
        </mxCell>
        <mxCell id="mNAGnWDZsvZTTTlplhB_-29" value="Genres" style="shape=table;startSize=25;container=1;collapsible=0;childLayout=tableLayout;fixedRows=1;rowLines=1;fontStyle=1;align=center;resizeLast=1;" vertex="1" parent="1">
          <mxGeometry x="1196" y="448" width="124" height="69" as="geometry" />
        </mxCell>
        <mxCell id="mNAGnWDZsvZTTTlplhB_-30" style="shape=tableRow;horizontal=0;startSize=0;swimlaneHead=0;swimlaneBody=0;fillColor=none;collapsible=0;dropTarget=0;points=[[0,0.5],[1,0.5]];portConstraint=eastwest;top=0;left=0;right=0;bottom=0;" vertex="1" parent="mNAGnWDZsvZTTTlplhB_-29">
          <mxGeometry y="25" width="124" height="22" as="geometry" />
        </mxCell>
        <mxCell id="mNAGnWDZsvZTTTlplhB_-31" value="int" style="shape=partialRectangle;connectable=0;fillColor=none;top=0;left=0;bottom=0;right=0;align=left;spacingLeft=2;overflow=hidden;fontSize=11;" vertex="1" parent="mNAGnWDZsvZTTTlplhB_-30">
          <mxGeometry width="36" height="22" as="geometry">
            <mxRectangle width="36" height="22" as="alternateBounds" />
          </mxGeometry>
        </mxCell>
        <mxCell id="mNAGnWDZsvZTTTlplhB_-32" value="genre_id" style="shape=partialRectangle;connectable=0;fillColor=none;top=0;left=0;bottom=0;right=0;align=left;spacingLeft=2;overflow=hidden;fontSize=11;" vertex="1" parent="mNAGnWDZsvZTTTlplhB_-30">
          <mxGeometry x="36" width="88" height="22" as="geometry">
            <mxRectangle width="88" height="22" as="alternateBounds" />
          </mxGeometry>
        </mxCell>
        <mxCell id="mNAGnWDZsvZTTTlplhB_-33" style="shape=tableRow;horizontal=0;startSize=0;swimlaneHead=0;swimlaneBody=0;fillColor=none;collapsible=0;dropTarget=0;points=[[0,0.5],[1,0.5]];portConstraint=eastwest;top=0;left=0;right=0;bottom=0;" vertex="1" parent="mNAGnWDZsvZTTTlplhB_-29">
          <mxGeometry y="47" width="124" height="22" as="geometry" />
        </mxCell>
        <mxCell id="mNAGnWDZsvZTTTlplhB_-34" value="string" style="shape=partialRectangle;connectable=0;fillColor=none;top=0;left=0;bottom=0;right=0;align=left;spacingLeft=2;overflow=hidden;fontSize=11;" vertex="1" parent="mNAGnWDZsvZTTTlplhB_-33">
          <mxGeometry width="36" height="22" as="geometry">
            <mxRectangle width="36" height="22" as="alternateBounds" />
          </mxGeometry>
        </mxCell>
        <mxCell id="mNAGnWDZsvZTTTlplhB_-35" value="genre_name" style="shape=partialRectangle;connectable=0;fillColor=none;top=0;left=0;bottom=0;right=0;align=left;spacingLeft=2;overflow=hidden;fontSize=11;" vertex="1" parent="mNAGnWDZsvZTTTlplhB_-33">
          <mxGeometry x="36" width="88" height="22" as="geometry">
            <mxRectangle width="88" height="22" as="alternateBounds" />
          </mxGeometry>
        </mxCell>
        <mxCell id="mNAGnWDZsvZTTTlplhB_-36" value="Developers" style="shape=table;startSize=25;container=1;collapsible=0;childLayout=tableLayout;fixedRows=1;rowLines=1;fontStyle=1;align=center;resizeLast=1;" vertex="1" parent="1">
          <mxGeometry x="969" y="448" width="127" height="69" as="geometry" />
        </mxCell>
        <mxCell id="mNAGnWDZsvZTTTlplhB_-37" style="shape=tableRow;horizontal=0;startSize=0;swimlaneHead=0;swimlaneBody=0;fillColor=none;collapsible=0;dropTarget=0;points=[[0,0.5],[1,0.5]];portConstraint=eastwest;top=0;left=0;right=0;bottom=0;" vertex="1" parent="mNAGnWDZsvZTTTlplhB_-36">
          <mxGeometry y="25" width="127" height="22" as="geometry" />
        </mxCell>
        <mxCell id="mNAGnWDZsvZTTTlplhB_-38" value="int" style="shape=partialRectangle;connectable=0;fillColor=none;top=0;left=0;bottom=0;right=0;align=left;spacingLeft=2;overflow=hidden;fontSize=11;" vertex="1" parent="mNAGnWDZsvZTTTlplhB_-37">
          <mxGeometry width="36" height="22" as="geometry">
            <mxRectangle width="36" height="22" as="alternateBounds" />
          </mxGeometry>
        </mxCell>
        <mxCell id="mNAGnWDZsvZTTTlplhB_-39" value="developer_id" style="shape=partialRectangle;connectable=0;fillColor=none;top=0;left=0;bottom=0;right=0;align=left;spacingLeft=2;overflow=hidden;fontSize=11;" vertex="1" parent="mNAGnWDZsvZTTTlplhB_-37">
          <mxGeometry x="36" width="91" height="22" as="geometry">
            <mxRectangle width="91" height="22" as="alternateBounds" />
          </mxGeometry>
        </mxCell>
        <mxCell id="mNAGnWDZsvZTTTlplhB_-40" style="shape=tableRow;horizontal=0;startSize=0;swimlaneHead=0;swimlaneBody=0;fillColor=none;collapsible=0;dropTarget=0;points=[[0,0.5],[1,0.5]];portConstraint=eastwest;top=0;left=0;right=0;bottom=0;" vertex="1" parent="mNAGnWDZsvZTTTlplhB_-36">
          <mxGeometry y="47" width="127" height="22" as="geometry" />
        </mxCell>
        <mxCell id="mNAGnWDZsvZTTTlplhB_-41" value="string" style="shape=partialRectangle;connectable=0;fillColor=none;top=0;left=0;bottom=0;right=0;align=left;spacingLeft=2;overflow=hidden;fontSize=11;" vertex="1" parent="mNAGnWDZsvZTTTlplhB_-40">
          <mxGeometry width="36" height="22" as="geometry">
            <mxRectangle width="36" height="22" as="alternateBounds" />
          </mxGeometry>
        </mxCell>
        <mxCell id="mNAGnWDZsvZTTTlplhB_-42" value="name" style="shape=partialRectangle;connectable=0;fillColor=none;top=0;left=0;bottom=0;right=0;align=left;spacingLeft=2;overflow=hidden;fontSize=11;" vertex="1" parent="mNAGnWDZsvZTTTlplhB_-40">
          <mxGeometry x="36" width="91" height="22" as="geometry">
            <mxRectangle width="91" height="22" as="alternateBounds" />
          </mxGeometry>
        </mxCell>
        <mxCell id="mNAGnWDZsvZTTTlplhB_-43" value="Publishers" style="shape=table;startSize=25;container=1;collapsible=0;childLayout=tableLayout;fixedRows=1;rowLines=1;fontStyle=1;align=center;resizeLast=1;" vertex="1" parent="1">
          <mxGeometry x="745" y="448" width="124" height="69" as="geometry" />
        </mxCell>
        <mxCell id="mNAGnWDZsvZTTTlplhB_-44" style="shape=tableRow;horizontal=0;startSize=0;swimlaneHead=0;swimlaneBody=0;fillColor=none;collapsible=0;dropTarget=0;points=[[0,0.5],[1,0.5]];portConstraint=eastwest;top=0;left=0;right=0;bottom=0;" vertex="1" parent="mNAGnWDZsvZTTTlplhB_-43">
          <mxGeometry y="25" width="124" height="22" as="geometry" />
        </mxCell>
        <mxCell id="mNAGnWDZsvZTTTlplhB_-45" value="int" style="shape=partialRectangle;connectable=0;fillColor=none;top=0;left=0;bottom=0;right=0;align=left;spacingLeft=2;overflow=hidden;fontSize=11;" vertex="1" parent="mNAGnWDZsvZTTTlplhB_-44">
          <mxGeometry width="36" height="22" as="geometry">
            <mxRectangle width="36" height="22" as="alternateBounds" />
          </mxGeometry>
        </mxCell>
        <mxCell id="mNAGnWDZsvZTTTlplhB_-46" value="publisher_id" style="shape=partialRectangle;connectable=0;fillColor=none;top=0;left=0;bottom=0;right=0;align=left;spacingLeft=2;overflow=hidden;fontSize=11;" vertex="1" parent="mNAGnWDZsvZTTTlplhB_-44">
          <mxGeometry x="36" width="88" height="22" as="geometry">
            <mxRectangle width="88" height="22" as="alternateBounds" />
          </mxGeometry>
        </mxCell>
        <mxCell id="mNAGnWDZsvZTTTlplhB_-47" style="shape=tableRow;horizontal=0;startSize=0;swimlaneHead=0;swimlaneBody=0;fillColor=none;collapsible=0;dropTarget=0;points=[[0,0.5],[1,0.5]];portConstraint=eastwest;top=0;left=0;right=0;bottom=0;" vertex="1" parent="mNAGnWDZsvZTTTlplhB_-43">
          <mxGeometry y="47" width="124" height="22" as="geometry" />
        </mxCell>
        <mxCell id="mNAGnWDZsvZTTTlplhB_-48" value="string" style="shape=partialRectangle;connectable=0;fillColor=none;top=0;left=0;bottom=0;right=0;align=left;spacingLeft=2;overflow=hidden;fontSize=11;" vertex="1" parent="mNAGnWDZsvZTTTlplhB_-47">
          <mxGeometry width="36" height="22" as="geometry">
            <mxRectangle width="36" height="22" as="alternateBounds" />
          </mxGeometry>
        </mxCell>
        <mxCell id="mNAGnWDZsvZTTTlplhB_-49" value="name" style="shape=partialRectangle;connectable=0;fillColor=none;top=0;left=0;bottom=0;right=0;align=left;spacingLeft=2;overflow=hidden;fontSize=11;" vertex="1" parent="mNAGnWDZsvZTTTlplhB_-47">
          <mxGeometry x="36" width="88" height="22" as="geometry">
            <mxRectangle width="88" height="22" as="alternateBounds" />
          </mxGeometry>
        </mxCell>
        <mxCell id="mNAGnWDZsvZTTTlplhB_-50" value="GameAdditionalGenres" style="shape=table;startSize=75;container=1;collapsible=0;childLayout=tableLayout;fixedRows=1;rowLines=1;fontStyle=1;align=center;resizeLast=1;" vertex="1" parent="1">
          <mxGeometry x="934" y="619" width="153" height="75" as="geometry" />
        </mxCell>
        <mxCell id="mNAGnWDZsvZTTTlplhB_-51" value="CartItems" style="shape=table;startSize=75;container=1;collapsible=0;childLayout=tableLayout;fixedRows=1;rowLines=1;fontStyle=1;align=center;resizeLast=1;" vertex="1" parent="1">
          <mxGeometry x="370" y="444" width="100" height="75" as="geometry" />
        </mxCell>
        <mxCell id="mNAGnWDZsvZTTTlplhB_-52" value="OrderDetails" style="shape=table;startSize=75;container=1;collapsible=0;childLayout=tableLayout;fixedRows=1;rowLines=1;fontStyle=1;align=center;resizeLast=1;" vertex="1" parent="1">
          <mxGeometry x="170" y="444" width="100" height="75" as="geometry" />
        </mxCell>
        <mxCell id="mNAGnWDZsvZTTTlplhB_-53" value="memiliki (0..1)" style="curved=1;startArrow=ERmandOne;startSize=10;;endArrow=ERmany;endSize=10;;exitX=0.97;exitY=1;entryX=0.5;entryY=-0.01;rounded=0;" edge="1" parent="1" source="mNAGnWDZsvZTTTlplhB_-1" target="mNAGnWDZsvZTTTlplhB_-14">
          <mxGeometry relative="1" as="geometry">
            <Array as="points">
              <mxPoint x="270" y="182" />
            </Array>
          </mxGeometry>
        </mxCell>
        <mxCell id="mNAGnWDZsvZTTTlplhB_-54" value="melakukan (0..n)" style="curved=1;startArrow=ERmandOne;startSize=10;;endArrow=ERmany;endSize=10;;exitX=0.03;exitY=1;entryX=0.5;entryY=-0.01;rounded=0;" edge="1" parent="1" source="mNAGnWDZsvZTTTlplhB_-1" target="mNAGnWDZsvZTTTlplhB_-15">
          <mxGeometry relative="1" as="geometry">
            <Array as="points">
              <mxPoint x="70" y="182" />
            </Array>
          </mxGeometry>
        </mxCell>
        <mxCell id="mNAGnWDZsvZTTTlplhB_-55" value="memiliki (1..n)" style="curved=1;startArrow=ERoneToMany;startSize=10;;endArrow=ERmandOne;endSize=10;;exitX=1;exitY=0.62;entryX=0.5;entryY=-0.01;rounded=0;" edge="1" parent="1" source="mNAGnWDZsvZTTTlplhB_-16" target="mNAGnWDZsvZTTTlplhB_-29">
          <mxGeometry relative="1" as="geometry">
            <Array as="points">
              <mxPoint x="1258" y="394" />
            </Array>
          </mxGeometry>
        </mxCell>
        <mxCell id="mNAGnWDZsvZTTTlplhB_-56" value="dikembangkan (1)" style="curved=1;startArrow=ERoneToMany;startSize=10;;endArrow=ERmandOne;endSize=10;;exitX=1;exitY=0.71;entryX=0.5;entryY=-0.01;rounded=0;" edge="1" parent="1" source="mNAGnWDZsvZTTTlplhB_-16" target="mNAGnWDZsvZTTTlplhB_-36">
          <mxGeometry relative="1" as="geometry">
            <Array as="points">
              <mxPoint x="1033" y="394" />
            </Array>
          </mxGeometry>
        </mxCell>
        <mxCell id="mNAGnWDZsvZTTTlplhB_-57" value="diterbitkan (1)" style="curved=1;startArrow=ERoneToMany;startSize=10;;endArrow=ERmandOne;endSize=10;;exitX=0.82;exitY=1;entryX=0.5;entryY=-0.01;rounded=0;" edge="1" parent="1" source="mNAGnWDZsvZTTTlplhB_-16" target="mNAGnWDZsvZTTTlplhB_-43">
          <mxGeometry relative="1" as="geometry">
            <Array as="points">
              <mxPoint x="807" y="394" />
            </Array>
          </mxGeometry>
        </mxCell>
        <mxCell id="mNAGnWDZsvZTTTlplhB_-58" value="memiliki (0..n)" style="curved=1;startArrow=ERoneToMany;startSize=10;;endArrow=ERmany;endSize=10;;exitX=0.19;exitY=1;entryX=0;entryY=0.26;rounded=0;" edge="1" parent="1" source="mNAGnWDZsvZTTTlplhB_-16" target="mNAGnWDZsvZTTTlplhB_-50">
          <mxGeometry relative="1" as="geometry">
            <Array as="points">
              <mxPoint x="645" y="394" />
              <mxPoint x="645" y="569" />
            </Array>
          </mxGeometry>
        </mxCell>
        <mxCell id="mNAGnWDZsvZTTTlplhB_-59" value="dimiliki (0..n)" style="curved=1;startArrow=ERoneToMany;startSize=10;;endArrow=ERmany;endSize=10;;exitX=0.5;exitY=0.99;entryX=1;entryY=0.14;rounded=0;" edge="1" parent="1" source="mNAGnWDZsvZTTTlplhB_-29" target="mNAGnWDZsvZTTTlplhB_-50">
          <mxGeometry relative="1" as="geometry">
            <Array as="points">
              <mxPoint x="1258" y="569" />
            </Array>
          </mxGeometry>
        </mxCell>
        <mxCell id="mNAGnWDZsvZTTTlplhB_-60" value="berisi (0..n)" style="curved=1;startArrow=ERmandOne;startSize=10;;endArrow=ERmany;endSize=10;;exitX=0.5;exitY=0.99;entryX=0;entryY=0.11;rounded=0;" edge="1" parent="1" source="mNAGnWDZsvZTTTlplhB_-14" target="mNAGnWDZsvZTTTlplhB_-51">
          <mxGeometry relative="1" as="geometry">
            <Array as="points">
              <mxPoint x="270" y="394" />
            </Array>
          </mxGeometry>
        </mxCell>
        <mxCell id="mNAGnWDZsvZTTTlplhB_-61" value="ada dalam" style="curved=1;startArrow=ERmandOne;startSize=10;;endArrow=ERmany;endSize=10;;exitX=0;exitY=0.82;entryX=0.93;entryY=0;rounded=0;" edge="1" parent="1" source="mNAGnWDZsvZTTTlplhB_-16" target="mNAGnWDZsvZTTTlplhB_-51">
          <mxGeometry relative="1" as="geometry">
            <Array as="points">
              <mxPoint x="520" y="394" />
            </Array>
          </mxGeometry>
        </mxCell>
        <mxCell id="mNAGnWDZsvZTTTlplhB_-62" value="berisi (1..n)" style="curved=1;startArrow=ERmandOne;startSize=10;;endArrow=ERmany;endSize=10;;exitX=0.5;exitY=0.99;entryX=0;entryY=0.11;rounded=0;" edge="1" parent="1" source="mNAGnWDZsvZTTTlplhB_-15" target="mNAGnWDZsvZTTTlplhB_-52">
          <mxGeometry relative="1" as="geometry">
            <Array as="points">
              <mxPoint x="70" y="394" />
            </Array>
          </mxGeometry>
        </mxCell>
        <mxCell id="mNAGnWDZsvZTTTlplhB_-63" value="terjual" style="curved=1;startArrow=ERmandOne;startSize=10;;endArrow=ERmany;endSize=10;;exitX=0;exitY=0.68;entryX=1;entryY=0.11;rounded=0;" edge="1" parent="1" source="mNAGnWDZsvZTTTlplhB_-16" target="mNAGnWDZsvZTTTlplhB_-52">
          <mxGeometry relative="1" as="geometry">
            <Array as="points">
              <mxPoint x="370" y="394" />
            </Array>
          </mxGeometry>
        </mxCell>
        <mxCell id="mNAGnWDZsvZTTTlplhB_-64" value="User" style="shape=umlLifeline;perimeter=lifelinePerimeter;whiteSpace=wrap;container=1;dropTarget=0;collapsible=0;recursiveResize=0;outlineConnect=0;portConstraint=eastwest;newEdgeStyle={&quot;edgeStyle&quot;:&quot;elbowEdgeStyle&quot;,&quot;elbow&quot;:&quot;vertical&quot;,&quot;curved&quot;:0,&quot;rounded&quot;:0};participant=umlActor;verticalAlign=bottom;labelPosition=center;verticalLabelPosition=top;align=center;size=65;" vertex="1" parent="1">
          <mxGeometry x="20" y="720" width="35" height="784" as="geometry" />
        </mxCell>
        <mxCell id="mNAGnWDZsvZTTTlplhB_-65" value="Web" style="shape=umlLifeline;perimeter=lifelinePerimeter;whiteSpace=wrap;container=1;dropTarget=0;collapsible=0;recursiveResize=0;outlineConnect=0;portConstraint=eastwest;newEdgeStyle={&quot;edgeStyle&quot;:&quot;elbowEdgeStyle&quot;,&quot;elbow&quot;:&quot;vertical&quot;,&quot;curved&quot;:0,&quot;rounded&quot;:0};size=65;" vertex="1" parent="1">
          <mxGeometry x="287" y="720" width="150" height="784" as="geometry" />
        </mxCell>
        <mxCell id="mNAGnWDZsvZTTTlplhB_-66" value="Database" style="shape=umlLifeline;perimeter=lifelinePerimeter;whiteSpace=wrap;container=1;dropTarget=0;collapsible=0;recursiveResize=0;outlineConnect=0;portConstraint=eastwest;newEdgeStyle={&quot;edgeStyle&quot;:&quot;elbowEdgeStyle&quot;,&quot;elbow&quot;:&quot;vertical&quot;,&quot;curved&quot;:0,&quot;rounded&quot;:0};size=65;" vertex="1" parent="1">
          <mxGeometry x="521" y="720" width="150" height="784" as="geometry" />
        </mxCell>
        <mxCell id="mNAGnWDZsvZTTTlplhB_-67" value="Login/Register" style="verticalAlign=bottom;edgeStyle=elbowEdgeStyle;elbow=vertical;curved=0;rounded=0;endArrow=block;" edge="1" parent="1" source="mNAGnWDZsvZTTTlplhB_-64" target="mNAGnWDZsvZTTTlplhB_-65">
          <mxGeometry relative="1" as="geometry">
            <Array as="points">
              <mxPoint x="237" y="827" />
            </Array>
          </mxGeometry>
        </mxCell>
        <mxCell id="mNAGnWDZsvZTTTlplhB_-68" value="Validasi Kredensial" style="verticalAlign=bottom;edgeStyle=elbowEdgeStyle;elbow=vertical;curved=0;rounded=0;endArrow=block;" edge="1" parent="1" source="mNAGnWDZsvZTTTlplhB_-65" target="mNAGnWDZsvZTTTlplhB_-66">
          <mxGeometry relative="1" as="geometry">
            <Array as="points">
              <mxPoint x="488" y="879" />
            </Array>
          </mxGeometry>
        </mxCell>
        <mxCell id="mNAGnWDZsvZTTTlplhB_-69" value="Hasil Validasi" style="verticalAlign=bottom;edgeStyle=elbowEdgeStyle;elbow=vertical;curved=0;rounded=0;dashed=1;dashPattern=2 3;endArrow=block;" edge="1" parent="1" source="mNAGnWDZsvZTTTlplhB_-66" target="mNAGnWDZsvZTTTlplhB_-65">
          <mxGeometry relative="1" as="geometry">
            <Array as="points">
              <mxPoint x="491" y="931" />
            </Array>
          </mxGeometry>
        </mxCell>
        <mxCell id="mNAGnWDZsvZTTTlplhB_-70" value="Browse Game" style="verticalAlign=bottom;edgeStyle=elbowEdgeStyle;elbow=vertical;curved=0;rounded=0;endArrow=block;" edge="1" parent="1" source="mNAGnWDZsvZTTTlplhB_-64" target="mNAGnWDZsvZTTTlplhB_-65">
          <mxGeometry relative="1" as="geometry">
            <Array as="points">
              <mxPoint x="237" y="983" />
            </Array>
          </mxGeometry>
        </mxCell>
        <mxCell id="mNAGnWDZsvZTTTlplhB_-71" value="Ambil Daftar Game" style="verticalAlign=bottom;edgeStyle=elbowEdgeStyle;elbow=vertical;curved=0;rounded=0;endArrow=block;" edge="1" parent="1" source="mNAGnWDZsvZTTTlplhB_-65" target="mNAGnWDZsvZTTTlplhB_-66">
          <mxGeometry relative="1" as="geometry">
            <Array as="points">
              <mxPoint x="488" y="1035" />
            </Array>
          </mxGeometry>
        </mxCell>
        <mxCell id="mNAGnWDZsvZTTTlplhB_-72" value="Kirim Daftar Game" style="verticalAlign=bottom;edgeStyle=elbowEdgeStyle;elbow=vertical;curved=0;rounded=0;dashed=1;dashPattern=2 3;endArrow=block;" edge="1" parent="1" source="mNAGnWDZsvZTTTlplhB_-66" target="mNAGnWDZsvZTTTlplhB_-65">
          <mxGeometry relative="1" as="geometry">
            <Array as="points">
              <mxPoint x="491" y="1087" />
            </Array>
          </mxGeometry>
        </mxCell>
        <mxCell id="mNAGnWDZsvZTTTlplhB_-73" value="Tambah Game ke Keranjang" style="verticalAlign=bottom;edgeStyle=elbowEdgeStyle;elbow=vertical;curved=0;rounded=0;endArrow=block;" edge="1" parent="1" source="mNAGnWDZsvZTTTlplhB_-64" target="mNAGnWDZsvZTTTlplhB_-65">
          <mxGeometry relative="1" as="geometry">
            <Array as="points">
              <mxPoint x="237" y="1139" />
            </Array>
          </mxGeometry>
        </mxCell>
        <mxCell id="mNAGnWDZsvZTTTlplhB_-74" value="Simpan Item Keranjang" style="verticalAlign=bottom;edgeStyle=elbowEdgeStyle;elbow=vertical;curved=0;rounded=0;endArrow=block;" edge="1" parent="1" source="mNAGnWDZsvZTTTlplhB_-65" target="mNAGnWDZsvZTTTlplhB_-66">
          <mxGeometry relative="1" as="geometry">
            <Array as="points">
              <mxPoint x="488" y="1191" />
            </Array>
          </mxGeometry>
        </mxCell>
        <mxCell id="mNAGnWDZsvZTTTlplhB_-75" value="Checkout" style="verticalAlign=bottom;edgeStyle=elbowEdgeStyle;elbow=vertical;curved=0;rounded=0;endArrow=block;" edge="1" parent="1" source="mNAGnWDZsvZTTTlplhB_-64" target="mNAGnWDZsvZTTTlplhB_-65">
          <mxGeometry relative="1" as="geometry">
            <Array as="points">
              <mxPoint x="237" y="1243" />
            </Array>
          </mxGeometry>
        </mxCell>
        <mxCell id="mNAGnWDZsvZTTTlplhB_-76" value="Buat Order Baru" style="verticalAlign=bottom;edgeStyle=elbowEdgeStyle;elbow=vertical;curved=0;rounded=0;endArrow=block;" edge="1" parent="1" source="mNAGnWDZsvZTTTlplhB_-65" target="mNAGnWDZsvZTTTlplhB_-66">
          <mxGeometry relative="1" as="geometry">
            <Array as="points">
              <mxPoint x="488" y="1295" />
            </Array>
          </mxGeometry>
        </mxCell>
        <mxCell id="mNAGnWDZsvZTTTlplhB_-77" value="Simpan Detail Order" style="verticalAlign=bottom;edgeStyle=elbowEdgeStyle;elbow=vertical;curved=0;rounded=0;endArrow=block;" edge="1" parent="1" source="mNAGnWDZsvZTTTlplhB_-65" target="mNAGnWDZsvZTTTlplhB_-66">
          <mxGeometry relative="1" as="geometry">
            <Array as="points">
              <mxPoint x="488" y="1347" />
            </Array>
          </mxGeometry>
        </mxCell>
        <mxCell id="mNAGnWDZsvZTTTlplhB_-78" value="Update Stok/Transaksi" style="verticalAlign=bottom;edgeStyle=elbowEdgeStyle;elbow=vertical;curved=0;rounded=0;endArrow=block;" edge="1" parent="1" source="mNAGnWDZsvZTTTlplhB_-65" target="mNAGnWDZsvZTTTlplhB_-66">
          <mxGeometry relative="1" as="geometry">
            <Array as="points">
              <mxPoint x="488" y="1399" />
            </Array>
          </mxGeometry>
        </mxCell>
      </root>
    </mxGraphModel>
  </diagram>
</mxfile>
